<?xml version="1.0" encoding="UTF-8"?>
<svg data-bbox="34 34 131.25 131.25" viewBox="0 0 200 200" height="200" width="200" xmlns="http://www.w3.org/2000/svg" data-type="shape">
    <g>
        <path d="M124.616 96.456c1.393-1.78.495-4.404-1.697-4.956l-11.952-3.013a3.128 3.128 0 0 1-2.007-1.584l-6.35-12.162c-1.149-2.2-4.281-2.247-5.496-.082l-6.907 12.313a3.125 3.125 0 0 1-1.961 1.501l-11.789 2.972c-2.246.566-3.117 3.293-1.615 5.056l8.61 10.108c.55.646.815 1.487.732 2.332l-1.235 12.583c-.241 2.458 2.33 4.211 4.53 3.089l11.018-5.62a3.126 3.126 0 0 1 2.873.017l10.73 5.634c2.149 1.129 4.709-.518 4.572-2.943l-.727-12.906a3.12 3.12 0 0 1 .659-2.102l8.012-10.237Zm-28.958-6.427 4.083-7.278 3.679 7.045a9.375 9.375 0 0 0 6.019 4.751l7.295 1.839-5.052 6.454a9.378 9.378 0 0 0-1.978 6.307l.418 7.399-5.847-3.069a9.371 9.371 0 0 0-8.617-.051l-5.93 3.024.676-6.899a9.375 9.375 0 0 0-2.194-6.995l-5.35-6.28 6.913-1.742a9.375 9.375 0 0 0 5.885-4.505Z" fill-rule="evenodd"/>
        <path d="M165.25 99.625c0 36.244-29.381 65.625-65.625 65.625S34 135.869 34 99.625 63.381 34 99.625 34s65.625 29.381 65.625 65.625Zm-6.25 0C159 132.417 132.417 159 99.625 159S40.25 132.417 40.25 99.625 66.833 40.25 99.625 40.25 159 66.833 159 99.625Z" fill-rule="evenodd"/>
    </g>
</svg>
